<svg width="78" height="78" viewBox="0 0 78 78" fill="none" xmlns="http://www.w3.org/2000/svg">
<circle cx="39" cy="39" r="39" fill="url(#paint0_linear_278_9057)"/>
<g clip-path="url(#clip0_278_9057)">
<path d="M50.8869 37.7533L36.6465 23.5132C36.3172 23.1835 35.8775 23.002 35.4087 23.002C34.9399 23.002 34.5002 23.1835 34.1708 23.5132L33.1221 24.5616C32.4397 25.2448 32.4397 26.3552 33.1221 27.0373L45.0802 38.9953L33.1089 50.9666C32.7795 51.2962 32.5977 51.7356 32.5977 52.2042C32.5977 52.6733 32.7795 53.1127 33.1089 53.4426L34.1576 54.4907C34.4872 54.8204 34.9266 55.002 35.3954 55.002C35.8642 55.002 36.3039 54.8204 36.6333 54.4907L50.8869 40.2376C51.2171 39.9069 51.3984 39.4654 51.3974 38.9961C51.3984 38.525 51.2171 38.0837 50.8869 37.7533Z" fill="white"/>
</g>
<defs>
<linearGradient id="paint0_linear_278_9057" x1="39" y1="7.62939e-06" x2="39" y2="78" gradientUnits="userSpaceOnUse">
<stop stop-color="#D675DB"/>
<stop offset="1" stop-color="#0051A3"/>
</linearGradient>
<clipPath id="clip0_278_9057">
<rect width="32" height="32" fill="white" transform="translate(25.9961 23.002)"/>
</clipPath>
</defs>
</svg>
