<svg width="50" height="50" viewBox="0 0 50 50" fill="none" xmlns="http://www.w3.org/2000/svg">
<circle cx="25" cy="25" r="25" fill="url(#paint0_linear_33_1928)"/>
<g clip-path="url(#clip0_33_1928)">
<path d="M32.6197 24.2005L23.4912 15.0722C23.2801 14.8609 22.9982 14.7445 22.6977 14.7445C22.3972 14.7445 22.1153 14.8609 21.9042 15.0722L21.232 15.7443C20.7945 16.1822 20.7945 16.894 21.232 17.3313L28.8974 24.9967L21.2235 32.6706C21.0123 32.8819 20.8958 33.1635 20.8958 33.4639C20.8958 33.7646 21.0123 34.0462 21.2235 34.2577L21.8957 34.9296C22.107 35.1409 22.3887 35.2573 22.6892 35.2573C22.9897 35.2573 23.2716 35.1409 23.4827 34.9296L32.6197 25.793C32.8313 25.581 32.9475 25.298 32.9469 24.9972C32.9475 24.6951 32.8313 24.4123 32.6197 24.2005Z" fill="white"/>
</g>
<defs>
<linearGradient id="paint0_linear_33_1928" x1="25" y1="3.8147e-06" x2="25" y2="50" gradientUnits="userSpaceOnUse">
<stop stop-color="#D675DB"/>
<stop offset="1" stop-color="#0051A3"/>
</linearGradient>
<clipPath id="clip0_33_1928">
<rect width="20.5128" height="20.5128" fill="white" transform="translate(16.6646 14.7445)"/>
</clipPath>
</defs>
</svg>
