<svg width="50" height="50" viewBox="0 0 50 50" fill="none" xmlns="http://www.w3.org/2000/svg">
<circle cx="25" cy="25" r="25" fill="url(#paint0_linear_33_1922)"/>
<g clip-path="url(#clip0_33_1922)">
<path d="M17.3782 25.8003L26.5066 34.9286C26.7177 35.1399 26.9996 35.2563 27.3001 35.2563C27.6006 35.2563 27.8825 35.1399 28.0936 34.9286L28.7658 34.2566C29.2033 33.8186 29.2033 33.1069 28.7658 32.6696L21.1004 25.0042L28.7743 17.3303C28.9855 17.119 29.1021 16.8373 29.1021 16.537C29.1021 16.2363 28.9855 15.9546 28.7743 15.7431L28.1021 15.0712C27.8908 14.8599 27.6091 14.7435 27.3086 14.7435C27.0081 14.7435 26.7263 14.8599 26.5151 15.0712L17.3782 24.2079C17.1665 24.4198 17.0503 24.7028 17.0509 25.0037C17.0503 25.3057 17.1665 25.5886 17.3782 25.8003Z" fill="white"/>
</g>
<defs>
<linearGradient id="paint0_linear_33_1922" x1="25" y1="0" x2="25" y2="50" gradientUnits="userSpaceOnUse">
<stop stop-color="#D675DB"/>
<stop offset="1" stop-color="#0051A3"/>
</linearGradient>
<clipPath id="clip0_33_1922">
<rect width="20.5128" height="20.5128" fill="white" transform="matrix(-1 0 0 -1 33.3333 35.2563)"/>
</clipPath>
</defs>
</svg>
