<svg width="78" height="78" viewBox="0 0 78 78" fill="none" xmlns="http://www.w3.org/2000/svg">
<circle cx="39" cy="39" r="39" fill="url(#paint0_linear_278_9051)"/>
<path d="M27.1092 40.2486L41.3496 54.4888C41.6789 54.8184 42.1186 55 42.5874 55C43.0562 55 43.4959 54.8184 43.8252 54.4888L44.874 53.4403C45.5564 52.7572 45.5564 51.6468 44.874 50.9647L32.9159 39.0066L44.8872 27.0354C45.2166 26.7057 45.3984 26.2663 45.3984 25.7978C45.3984 25.3287 45.2166 24.8893 44.8872 24.5594L43.8385 23.5112C43.5089 23.1816 43.0695 23 42.6007 23C42.1319 23 41.6922 23.1816 41.3628 23.5112L27.1092 37.7644C26.779 38.095 26.5977 38.5365 26.5987 39.0059C26.5977 39.477 26.779 39.9182 27.1092 40.2486Z" fill="white"/>
<defs>
<linearGradient id="paint0_linear_278_9051" x1="39" y1="0" x2="39" y2="78" gradientUnits="userSpaceOnUse">
<stop stop-color="#D675DB"/>
<stop offset="1" stop-color="#0051A3"/>
</linearGradient>
</defs>
</svg>
