<svg width="44" height="44" viewBox="0 0 44 44" fill="none" xmlns="http://www.w3.org/2000/svg">
<rect x="1" y="1" width="42" height="42" rx="9" stroke="white" stroke-width="2"/>
<path d="M33.2924 16.6045C33.5589 16.224 33.5744 15.7342 33.3327 15.3394C33.0909 14.9446 32.6333 14.7124 32.1507 14.7397L12.2058 15.8686C11.7005 15.8972 11.2608 16.2046 11.0851 16.6523C10.9094 17.0999 11.0308 17.6032 11.3946 17.9351L16.1652 22.2875C16.5748 22.6612 17.1975 22.7335 17.6911 22.4648L22.7449 19.7135C23.3554 19.3812 24.1361 19.5784 24.4886 20.1541C24.8411 20.7298 24.6319 21.466 24.0214 21.7984L18.9677 24.5497C18.4741 24.8184 18.2292 25.3631 18.3676 25.8844L19.9796 31.9563C20.1026 32.4194 20.5041 32.7702 21.0031 32.8505C21.5021 32.9309 22.0043 32.7256 22.2832 32.3272L33.2924 16.6045Z" fill="white"/>
</svg>
